# 3ds Max Wavefront OBJ Exporter v0.99 - (c)2007 guruware
# 创建的文件:25.04.2024 11:00:15

mtllib sanqibaotiao_zuanshi.mtl

#
# object sanqibaotiao_zuanshi
#

v  -36.2032 35.7670 -0.0000
v  -18.2624 35.7728 31.1091
v  -12.5782 51.6004 20.6674
v  -24.9227 51.5999 -0.0000
v  17.9085 35.7726 31.1108
v  12.3233 51.6004 20.6687
v  36.2032 35.7642 -0.0000
v  24.9705 51.5992 -0.0000
v  0.0325 0.4868 -0.0000
v  -0.0659 51.5888 -0.0000
v  -12.5782 51.6004 -20.6674
v  -18.2624 35.7728 -31.1091
v  12.3233 51.6004 -20.6687
v  17.9085 35.7726 -31.1108
# 14 vertices

vn -0.7307 0.5325 0.4273
vn -0.0000 0.5507 0.8347
vn 0.7279 0.5301 0.4349
vn -0.6472 -0.6647 0.3733
vn -0.0000 -0.6613 0.7501
vn 0.6458 -0.6622 0.3800
vn 0.0004 1.0000 -0.0003
vn 0.0000 1.0000 -0.0006
vn -0.0004 1.0000 -0.0003
vn -0.7307 0.5325 -0.4273
vn -0.0000 0.5507 -0.8347
vn 0.7279 0.5301 -0.4349
vn -0.6472 -0.6647 -0.3733
vn -0.0000 -0.6613 -0.7501
vn 0.6458 -0.6622 -0.3800
vn 0.0004 1.0000 0.0003
vn 0.0000 1.0000 0.0006
vn -0.0004 1.0000 0.0003
# 18 vertex normals

vt 0.0154 0.3884 0.0000
vt 0.3150 0.3854 0.0000
vt 0.2649 0.5376 0.0000
vt 0.0640 0.5380 0.0000
vt 0.6592 0.3708 0.0000
vt 0.6093 0.5195 0.0000
vt 0.3877 0.5193 0.0000
vt 0.3410 0.3693 0.0000
vt 0.7254 0.5318 0.0000
vt 0.6734 0.3864 0.0000
vt 0.9882 0.3894 0.0000
vt 0.9367 0.5321 0.0000
vt 0.1623 0.0061 0.0000
vt 0.5044 0.0117 0.0000
vt 0.8328 0.0246 0.0000
vt 0.2481 0.7813 0.0000
vt 0.3725 0.5732 0.0000
vt 0.4977 0.7812 0.0000
vt 0.6223 0.5737 0.0000
vt 0.7483 0.7811 0.0000
vt 0.2045 0.9596 0.0000
vt 0.2415 0.8473 0.0000
vt 0.0203 0.8495 0.0000
vt 0.0562 0.9599 0.0000
vt 0.9885 0.8567 0.0000
vt 0.7497 0.8545 0.0000
vt 0.7930 0.9648 0.0000
vt 0.9533 0.9650 0.0000
vt 0.1288 0.5673 0.0000
vt 0.8706 0.5800 0.0000
vt 0.3727 0.9892 0.0000
vt 0.6225 0.9885 0.0000
# 32 texture coords

o sanqibaotiao_zuanshi
g sanqibaotiao_zuanshi
usemtl sanqibaotiao_zuanshi
s off
f 1/1/1 2/2/1 3/3/1 4/4/1 
f 5/5/2 6/6/2 3/7/2 2/8/2 
f 6/9/3 5/10/3 7/11/3 8/12/3 
f 9/13/4 2/2/4 1/1/4 
f 9/14/5 5/5/5 2/8/5 
f 9/15/6 7/11/6 5/10/6 
f 4/16/7 3/17/7 10/18/7 
f 3/17/8 6/19/8 10/18/8 
f 6/19/9 8/20/9 10/18/9 
f 11/21/10 12/22/10 1/23/10 4/24/10 
f 11/7/11 13/6/11 14/5/11 12/8/11 
f 7/25/12 14/26/12 13/27/12 8/28/12 
f 9/29/13 1/23/13 12/22/13 
f 9/14/14 12/8/14 14/5/14 
f 9/30/15 14/26/15 7/25/15 
f 4/16/16 10/18/16 11/31/16 
f 11/31/17 10/18/17 13/32/17 
f 13/32/18 10/18/18 8/20/18 
# 6 polygons - 12 triangles

